<svg width="200" height="200" viewBox="0 0 200 200" fill="none" xmlns="http://www.w3.org/2000/svg">
  <!-- Fondo con gradiente -->
  <defs>
    <linearGradient id="dashboardGradient" x1="0%" y1="0%" x2="100%" y2="100%">
      <stop offset="0%" style="stop-color:#4a5568;stop-opacity:1" />
      <stop offset="100%" style="stop-color:#2d3748;stop-opacity:1" />
    </linearGradient>
  </defs>
  
  <!-- Dashboard container -->
  <rect x="20" y="20" width="160" height="160" rx="8" fill="url(#dashboardGradient)" stroke="#ea999c" stroke-width="2"/>
  
  <!-- Header -->
  <rect x="20" y="20" width="160" height="25" fill="#1a202c"/>
  <rect x="25" y="28" width="60" height="9" rx="4" fill="#e2e8f0"/>
  <circle cx="170" cy="32" r="3" fill="#ea999c"/>
  
  <!-- Navigation -->
  <rect x="20" y="45" width="160" height="15" fill="#2d3748"/>
  <rect x="25" y="48" width="20" height="9" rx="4" fill="#ea999c"/>
  <rect x="50" y="48" width="15" height="9" rx="4" fill="#4a5568"/>
  <rect x="70" y="48" width="15" height="9" rx="4" fill="#4a5568"/>
  
  <!-- Main content -->
  <rect x="20" y="60" width="160" height="120" fill="#1a202c"/>
  
  <!-- KPI Cards -->
  <rect x="25" y="70" width="35" height="25" rx="4" fill="#ea999c" opacity="0.3"/>
  <rect x="30" y="75" width="25" height="4" rx="2" fill="#e2e8f0"/>
  <rect x="30" y="82" width="15" height="8" rx="2" fill="#ea999c"/>
  
  <rect x="70" y="70" width="35" height="25" rx="4" fill="#8caaee" opacity="0.3"/>
  <rect x="75" y="75" width="25" height="4" rx="2" fill="#e2e8f0"/>
  <rect x="75" y="82" width="20" height="8" rx="2" fill="#8caaee"/>
  
  <rect x="115" y="70" width="35" height="25" rx="4" fill="#a6d189" opacity="0.3"/>
  <rect x="120" y="75" width="25" height="4" rx="2" fill="#e2e8f0"/>
  <rect x="120" y="82" width="18" height="8" rx="2" fill="#a6d189"/>
  
  <rect x="160" y="70" width="15" height="25" rx="4" fill="#ca9ee6" opacity="0.3"/>
  <rect x="162" y="75" width="11" height="4" rx="2" fill="#e2e8f0"/>
  <rect x="162" y="82" width="11" height="8" rx="2" fill="#ca9ee6"/>
  
  <!-- Chart area -->
  <rect x="25" y="105" width="150" height="70" rx="4" fill="#2d3748"/>
  
  <!-- Bar chart -->
  <rect x="35" y="140" width="8" height="25" rx="2" fill="#ea999c"/>
  <rect x="50" y="135" width="8" height="30" rx="2" fill="#8caaee"/>
  <rect x="65" y="130" width="8" height="35" rx="2" fill="#a6d189"/>
  <rect x="80" y="125" width="8" height="40" rx="2" fill="#ca9ee6"/>
  <rect x="95" y="140" width="8" height="25" rx="2" fill="#ea999c"/>
  <rect x="110" y="135" width="8" height="30" rx="2" fill="#8caaee"/>
  <rect x="125" y="130" width="8" height="35" rx="2" fill="#a6d189"/>
  <rect x="140" y="125" width="8" height="40" rx="2" fill="#ca9ee6"/>
  
  <!-- Chart labels -->
  <rect x="35" y="170" width="8" height="2" rx="1" fill="#4a5568"/>
  <rect x="50" y="170" width="8" height="2" rx="1" fill="#4a5568"/>
  <rect x="65" y="170" width="8" height="2" rx="1" fill="#4a5568"/>
  <rect x="80" y="170" width="8" height="2" rx="1" fill="#4a5568"/>
  <rect x="95" y="170" width="8" height="2" rx="1" fill="#4a5568"/>
  <rect x="110" y="170" width="8" height="2" rx="1" fill="#4a5568"/>
  <rect x="125" y="170" width="8" height="2" rx="1" fill="#4a5568"/>
  <rect x="140" y="170" width="8" height="2" rx="1" fill="#4a5568"/>
  
  <!-- Grid lines -->
  <line x1="30" y1="140" x2="175" y2="140" stroke="#4a5568" stroke-width="1"/>
  <line x1="30" y1="155" x2="175" y2="155" stroke="#4a5568" stroke-width="1"/>
</svg>
