<svg width="200" height="200" viewBox="0 0 200 200" fill="none" xmlns="http://www.w3.org/2000/svg">
  <!-- Fondo con gradiente -->
  <defs>
    <linearGradient id="ecommerceGradient" x1="0%" y1="0%" x2="100%" y2="100%">
      <stop offset="0%" style="stop-color:#4a5568;stop-opacity:1" />
      <stop offset="100%" style="stop-color:#2d3748;stop-opacity:1" />
    </linearGradient>
  </defs>
  
  <!-- Store container -->
  <rect x="20" y="20" width="160" height="160" rx="8" fill="url(#ecommerceGradient)" stroke="#ea999c" stroke-width="2"/>
  
  <!-- Header -->
  <rect x="20" y="20" width="160" height="25" fill="#1a202c"/>
  <rect x="25" y="28" width="50" height="9" rx="4" fill="#e2e8f0"/>
  <circle cx="170" cy="32" r="3" fill="#ea999c"/>
  
  <!-- Search bar -->
  <rect x="20" y="45" width="160" height="15" fill="#2d3748"/>
  <rect x="25" y="48" width="120" height="9" rx="4" fill="#4a5568"/>
  <circle cx="155" cy="52" r="3" fill="#ea999c"/>
  
  <!-- Navigation -->
  <rect x="20" y="60" width="160" height="15" fill="#1a202c"/>
  <rect x="25" y="63" width="20" height="9" rx="4" fill="#ea999c"/>
  <rect x="50" y="63" width="15" height="9" rx="4" fill="#4a5568"/>
  <rect x="70" y="63" width="15" height="9" rx="4" fill="#4a5568"/>
  <rect x="90" y="63" width="15" height="9" rx="4" fill="#4a5568"/>
  
  <!-- Main content -->
  <rect x="20" y="75" width="160" height="105" fill="#1a202c"/>
  
  <!-- Product grid -->
  <!-- Product 1 -->
  <rect x="25" y="80" width="35" height="35" rx="4" fill="#ea999c" opacity="0.3"/>
  <rect x="27" y="82" width="31" height="20" rx="2" fill="#e2e8f0"/>
  <rect x="27" y="105" width="20" height="4" rx="2" fill="#ea999c"/>
  <rect x="27" y="110" width="15" height="3" rx="1" fill="#4a5568"/>
  
  <!-- Product 2 -->
  <rect x="70" y="80" width="35" height="35" rx="4" fill="#8caaee" opacity="0.3"/>
  <rect x="72" y="82" width="31" height="20" rx="2" fill="#e2e8f0"/>
  <rect x="72" y="105" width="20" height="4" rx="2" fill="#8caaee"/>
  <rect x="72" y="110" width="15" height="3" rx="1" fill="#4a5568"/>
  
  <!-- Product 3 -->
  <rect x="115" y="80" width="35" height="35" rx="4" fill="#a6d189" opacity="0.3"/>
  <rect x="117" y="82" width="31" height="20" rx="2" fill="#e2e8f0"/>
  <rect x="117" y="105" width="20" height="4" rx="2" fill="#a6d189"/>
  <rect x="117" y="110" width="15" height="3" rx="1" fill="#4a5568"/>
  
  <!-- Product 4 -->
  <rect x="160" y="80" width="15" height="35" rx="4" fill="#ca9ee6" opacity="0.3"/>
  <rect x="162" y="82" width="11" height="20" rx="2" fill="#e2e8f0"/>
  <rect x="162" y="105" width="11" height="4" rx="2" fill="#ca9ee6"/>
  <rect x="162" y="110" width="8" height="3" rx="1" fill="#4a5568"/>
  
  <!-- Second row -->
  <!-- Product 5 -->
  <rect x="25" y="125" width="35" height="35" rx="4" fill="#ea999c" opacity="0.3"/>
  <rect x="27" y="127" width="31" height="20" rx="2" fill="#e2e8f0"/>
  <rect x="27" y="150" width="20" height="4" rx="2" fill="#ea999c"/>
  <rect x="27" y="155" width="15" height="3" rx="1" fill="#4a5568"/>
  
  <!-- Product 6 -->
  <rect x="70" y="125" width="35" height="35" rx="4" fill="#8caaee" opacity="0.3"/>
  <rect x="72" y="127" width="31" height="20" rx="2" fill="#e2e8f0"/>
  <rect x="72" y="150" width="20" height="4" rx="2" fill="#8caaee"/>
  <rect x="72" y="155" width="15" height="3" rx="1" fill="#4a5568"/>
  
  <!-- Shopping cart -->
  <rect x="115" y="125" width="60" height="35" rx="4" fill="#2d3748"/>
  <rect x="120" y="130" width="50" height="8" rx="2" fill="#e2e8f0"/>
  <rect x="120" y="142" width="30" height="6" rx="2" fill="#ea999c"/>
  <rect x="120" y="150" width="25" height="6" rx="2" fill="#8caaee"/>
  
  <!-- Cart icon -->
  <circle cx="155" cy="140" r="8" fill="#ea999c" opacity="0.3"/>
  <circle cx="155" cy="140" r="3" fill="#ea999c"/>
</svg>
