<svg width="200" height="200" viewBox="0 0 200 200" fill="none" xmlns="http://www.w3.org/2000/svg">
  <!-- Fondo con gradiente -->
  <defs>
    <linearGradient id="webGradient" x1="0%" y1="0%" x2="100%" y2="100%">
      <stop offset="0%" style="stop-color:#4a5568;stop-opacity:1" />
      <stop offset="100%" style="stop-color:#2d3748;stop-opacity:1" />
    </linearGradient>
  </defs>
  
  <!-- Browser window -->
  <rect x="20" y="20" width="160" height="160" rx="8" fill="url(#webGradient)" stroke="#ea999c" stroke-width="2"/>
  
  <!-- Browser header -->
  <rect x="20" y="20" width="160" height="25" fill="#1a202c"/>
  <circle cx="35" cy="32" r="3" fill="#ea999c"/>
  <circle cx="45" cy="32" r="3" fill="#4a5568"/>
  <circle cx="55" cy="32" r="3" fill="#4a5568"/>
  <rect x="70" y="28" width="80" height="8" rx="4" fill="#4a5568"/>
  
  <!-- Navigation bar -->
  <rect x="20" y="45" width="160" height="15" fill="#2d3748"/>
  <rect x="25" y="48" width="20" height="9" rx="4" fill="#ea999c"/>
  <rect x="50" y="48" width="15" height="9" rx="4" fill="#4a5568"/>
  <rect x="70" y="48" width="15" height="9" rx="4" fill="#4a5568"/>
  <rect x="90" y="48" width="15" height="9" rx="4" fill="#4a5568"/>
  
  <!-- Main content area -->
  <rect x="20" y="60" width="160" height="120" fill="#1a202c"/>
  
  <!-- Sidebar -->
  <rect x="20" y="60" width="40" height="120" fill="#2d3748"/>
  <rect x="25" y="70" width="30" height="8" rx="4" fill="#ea999c"/>
  <rect x="25" y="85" width="30" height="6" rx="3" fill="#4a5568"/>
  <rect x="25" y="95" width="30" height="6" rx="3" fill="#4a5568"/>
  <rect x="25" y="105" width="30" height="6" rx="3" fill="#4a5568"/>
  
  <!-- Content area -->
  <rect x="70" y="70" width="100" height="15" rx="3" fill="#4a5568"/>
  <rect x="70" y="90" width="80" height="8" rx="4" fill="#e2e8f0"/>
  <rect x="70" y="102" width="60" height="6" rx="3" fill="#a5adce"/>
  <rect x="70" y="112" width="70" height="6" rx="3" fill="#a5adce"/>
  
  <!-- Cards -->
  <rect x="70" y="125" width="45" height="25" rx="3" fill="#ea999c" opacity="0.3"/>
  <rect x="120" y="125" width="45" height="25" rx="3" fill="#8caaee" opacity="0.3"/>
  
  <!-- Footer -->
  <rect x="20" y="160" width="160" height="20" fill="#2d3748"/>
  <rect x="25" y="165" width="30" height="10" rx="5" fill="#4a5568"/>
  <rect x="60" y="165" width="30" height="10" rx="5" fill="#4a5568"/>
  <rect x="95" y="165" width="30" height="10" rx="5" fill="#4a5568"/>
</svg>
